<svg xmlns="http://www.w3.org/2000/svg" xmlns:xlink="http://www.w3.org/1999/xlink" contentStyleType="text/css" height="932px" preserveAspectRatio="none" style="width:1093px;height:932px;background:#FFFFFF;" version="1.1" viewBox="0 0 1093 932" width="1093px" zoomAndPan="magnify"><defs/><g><!--cluster Profiling & Analysis--><g id="cluster_Profiling &amp; Analysis"><rect fill="none" height="240" rx="2.5" ry="2.5" style="stroke:#181818;stroke-width:1.0;" width="233.49" x="405.18" y="352.31"/><text fill="#000000" font-family="sans-serif" font-size="14" font-weight="bold" lengthAdjust="spacing" textLength="142.2695" x="450.7902" y="367.8452">Profiling &amp; Analysis</text></g><!--cluster Comparison & Exploration--><g id="cluster_Comparison &amp; Exploration"><rect fill="none" height="190" rx="2.5" ry="2.5" style="stroke:#181818;stroke-width:1.0;" width="270.26" x="386.8" y="138.31"/><text fill="#000000" font-family="sans-serif" font-size="14" font-weight="bold" lengthAdjust="spacing" textLength="189.0273" x="427.4163" y="153.8452">Comparison &amp; Exploration</text></g><!--cluster Knowledge Management--><g id="cluster_Knowledge Management"><rect fill="none" height="292" rx="2.5" ry="2.5" style="stroke:#181818;stroke-width:1.0;" width="333.53" x="355.16" y="616.31"/><text fill="#000000" font-family="sans-serif" font-size="14" font-weight="bold" lengthAdjust="spacing" textLength="176.6885" x="433.5808" y="631.8452">Knowledge Management</text></g><g id="elem_UC1"><ellipse cx="521.9305" cy="406.3121" fill="#F1F1F1" rx="82.6105" ry="18.9221" style="stroke:#181818;stroke-width:0.5;"/><text fill="#000000" font-family="sans-serif" font-size="14" lengthAdjust="spacing" textLength="124.2158" x="459.8226" y="409.6031">Profile a notebook</text></g><g id="elem_UC2"><ellipse cx="521.9338" cy="478.3148" fill="#F1F1F1" rx="77.4238" ry="17.8848" style="stroke:#181818;stroke-width:0.5;"/><text fill="#000000" font-family="sans-serif" font-size="14" lengthAdjust="spacing" textLength="111.9316" x="465.968" y="481.6058">Explore a profile</text></g><g id="elem_UC3"><ellipse cx="521.9262" cy="553.3092" fill="#F1F1F1" rx="100.7462" ry="22.5492" style="stroke:#181818;stroke-width:0.5;"/><text fill="#000000" font-family="sans-serif" font-size="14" lengthAdjust="spacing" textLength="165.2588" x="439.2968" y="556.6003">Assess notebook quality</text></g><g id="elem_UC4"><ellipse cx="521.9264" cy="286.3113" fill="#F1F1F1" rx="115.6564" ry="25.5313" style="stroke:#181818;stroke-width:0.5;"/><text fill="#000000" font-family="sans-serif" font-size="14" lengthAdjust="spacing" textLength="197.6885" x="423.0821" y="289.6023">Compare multiple notebooks</text></g><g id="elem_UC5"><ellipse cx="521.9284" cy="199.3057" fill="#F1F1F1" rx="119.1284" ry="26.2257" style="stroke:#181818;stroke-width:0.5;"/><text fill="#000000" font-family="sans-serif" font-size="14" lengthAdjust="spacing" textLength="205.1328" x="419.362" y="202.5967">Filter notebooks by properties</text></g><g id="elem_UC6"><ellipse cx="521.931" cy="679.3102" fill="#F1F1F1" rx="126.851" ry="27.7702" style="stroke:#181818;stroke-width:0.5;"/><text fill="#000000" font-family="sans-serif" font-size="14" lengthAdjust="spacing" textLength="221.5801" x="411.1409" y="682.6012">Resolve profiling inconsistencies</text></g><g id="elem_UC7"><ellipse cx="521.9277" cy="774.3135" fill="#F1F1F1" rx="150.7677" ry="32.5535" style="stroke:#181818;stroke-width:1.0;stroke-dasharray:7.0,7.0;"/><text fill="#000000" font-family="sans-serif" font-size="14" lengthAdjust="spacing" textLength="271.8037" x="386.0258" y="777.6045">Visualize knowledge acquisition metrics</text></g><g id="elem_UC8"><ellipse cx="521.9264" cy="867.3113" fill="#F1F1F1" rx="113.3064" ry="25.0613" style="stroke:#181818;stroke-width:1.0;stroke-dasharray:7.0,7.0;"/><text fill="#000000" font-family="sans-serif" font-size="14" lengthAdjust="spacing" textLength="192.6299" x="425.6114" y="870.6023">Analyze notebook variability</text></g><!--entity DS--><g id="elem_DS"><ellipse cx="158.5839" cy="412.57" fill="#F1F1F1" rx="8" ry="8" style="stroke:#181818;stroke-width:0.5;"/><path d="M158.5839,420.57 L158.5839,447.57 M145.5839,428.57 L171.5839,428.57 M158.5839,447.57 L145.5839,462.57 M158.5839,447.57 L171.5839,462.57 " fill="none" style="stroke:#181818;stroke-width:0.5;"/><text fill="#000000" font-family="sans-serif" font-size="14" lengthAdjust="spacing" textLength="88.0879" x="114.54" y="477.6052">DataScientist</text></g><!--entity KM--><g id="elem_KM"><ellipse cx="158.5796" cy="705.57" fill="#F1F1F1" rx="8" ry="8" style="stroke:#181818;stroke-width:0.5;"/><path d="M158.5796,713.57 L158.5796,740.57 M145.5796,721.57 L171.5796,721.57 M158.5796,740.57 L145.5796,755.57 M158.5796,740.57 L171.5796,755.57 " fill="none" style="stroke:#181818;stroke-width:0.5;"/><text fill="#000000" font-family="sans-serif" font-size="14" lengthAdjust="spacing" textLength="146.1592" x="85.5" y="770.6052">KnowledgeMaintainer</text></g><g id="elem_GMN24"><path d="M732.69,382 L732.69,400.14 L604.73,405.46 L732.69,408.14 L732.69,422.6211 A0,0 0 0 0 732.69,422.6211 L1086.65,422.6211 A0,0 0 0 0 1086.65,422.6211 L1086.65,392 L1076.65,382 L732.69,382 A0,0 0 0 0 732.69,382 " fill="#FEFFDD" style="stroke:#181818;stroke-width:0.5;"/><path d="M1076.65,382 L1076.65,392 L1086.65,392 L1076.65,382 " fill="#FEFFDD" style="stroke:#181818;stroke-width:0.5;"/><text fill="#000000" font-family="sans-serif" font-size="13" lengthAdjust="spacing" textLength="228.2046" x="738.69" y="399.5684">Extract profiles from notebook code</text><text fill="#000000" font-family="sans-serif" font-size="13" lengthAdjust="spacing" textLength="332.96" x="738.69" y="414.8789">using multiple profiling functions (e.g., parser, LLM).</text></g><g id="elem_GMN27"><path d="M747.47,458 L747.47,474.31 L599.6,478.31 L747.47,482.31 L747.47,498.6211 A0,0 0 0 0 747.47,498.6211 L1071.8816,498.6211 A0,0 0 0 0 1071.8816,498.6211 L1071.8816,468 L1061.8816,458 L747.47,458 A0,0 0 0 0 747.47,458 " fill="#FEFFDD" style="stroke:#181818;stroke-width:0.5;"/><path d="M1061.8816,458 L1061.8816,468 L1071.8816,468 L1061.8816,458 " fill="#FEFFDD" style="stroke:#181818;stroke-width:0.5;"/><text fill="#000000" font-family="sans-serif" font-size="13" lengthAdjust="spacing" textLength="299.3047" x="753.47" y="475.5684">Navigate profiles at different abstraction levels,</text><text fill="#000000" font-family="sans-serif" font-size="13" lengthAdjust="spacing" textLength="303.4116" x="753.47" y="490.8789">such as CRISP-DM phases or custom groupings.</text></g><g id="elem_GMN30"><path d="M756.64,534 L756.64,549.91 L623.02,553.57 L756.64,557.91 L756.64,574.6211 A0,0 0 0 0 756.64,574.6211 L1062.7069,574.6211 A0,0 0 0 0 1062.7069,574.6211 L1062.7069,544 L1052.7069,534 L756.64,534 A0,0 0 0 0 756.64,534 " fill="#FEFFDD" style="stroke:#181818;stroke-width:0.5;"/><path d="M1052.7069,534 L1052.7069,544 L1062.7069,544 L1052.7069,534 " fill="#FEFFDD" style="stroke:#181818;stroke-width:0.5;"/><text fill="#000000" font-family="sans-serif" font-size="13" lengthAdjust="spacing" textLength="185.3325" x="762.64" y="551.5684">Assess coding best practices,</text><text fill="#000000" font-family="sans-serif" font-size="13" lengthAdjust="spacing" textLength="285.0669" x="762.64" y="566.8789">ML pipeline design and evaluation strategies.</text></g><g id="elem_GMN33"><path d="M387.98,82 L387.98,122.6211 L655.8784,122.6211 L655.8784,92 L645.8784,82 L387.98,82 " fill="#FEFFDD" style="stroke:#181818;stroke-width:0.5;"/><path d="M645.8784,82 L645.8784,92 L655.8784,92 L645.8784,82 " fill="#FEFFDD" style="stroke:#181818;stroke-width:1.0;"/><text fill="#000000" font-family="sans-serif" font-size="13" lengthAdjust="spacing" textLength="246.8984" x="393.98" y="99.5684">Compare notebooks to detect common</text><text fill="#000000" font-family="sans-serif" font-size="13" lengthAdjust="spacing" textLength="218.3467" x="393.98" y="114.8789">patterns, workflows, or anomalies.</text></g><g id="elem_GMN36"><path d="M413.46,6 L413.46,46.6211 L630.3931,46.6211 L630.3931,16 L620.3931,6 L413.46,6 " fill="#FEFFDD" style="stroke:#181818;stroke-width:0.5;"/><path d="M620.3931,6 L620.3931,16 L630.3931,16 L620.3931,6 " fill="#FEFFDD" style="stroke:#181818;stroke-width:1.0;"/><text fill="#000000" font-family="sans-serif" font-size="13" lengthAdjust="spacing" textLength="191.0454" x="419.46" y="23.5684">Filter notebooks by algorithm,</text><text fill="#000000" font-family="sans-serif" font-size="13" lengthAdjust="spacing" textLength="195.9331" x="419.46" y="38.8789">structure, or profiling features.</text></g><g id="elem_GMN39"><path d="M11.61,621 L11.61,661.6211 A0,0 0 0 0 11.61,661.6211 L305.5402,661.6211 A0,0 0 0 0 305.5402,661.6211 L305.5402,660.71 L406.73,667.3 L305.5402,652.71 L305.5402,631 L295.5402,621 L11.61,621 A0,0 0 0 0 11.61,621 " fill="#FEFFDD" style="stroke:#181818;stroke-width:0.5;"/><path d="M295.5402,621 L295.5402,631 L305.5402,631 L295.5402,621 " fill="#FEFFDD" style="stroke:#181818;stroke-width:0.5;"/><text fill="#000000" font-family="sans-serif" font-size="13" lengthAdjust="spacing" textLength="272.9302" x="17.61" y="638.5684">Handle conflicts between profiling outputs,</text><text fill="#000000" font-family="sans-serif" font-size="13" lengthAdjust="spacing" textLength="256.4961" x="17.61" y="653.8789">suggest or validate reference categories.</text></g><g id="elem_GMN42"><path d="M6,809 L6,849.6211 A0,0 0 0 0 6,849.6211 L311.1592,849.6211 A0,0 0 0 0 311.1592,849.6211 L311.1592,819 L301.1592,809 L300.19,809 L397.49,793.1 L292.19,809 L6,809 A0,0 0 0 0 6,809 " fill="#FEFFDD" style="stroke:#181818;stroke-width:0.5;"/><path d="M301.1592,809 L301.1592,819 L311.1592,819 L301.1592,809 " fill="#FEFFDD" style="stroke:#181818;stroke-width:0.5;"/><text fill="#000000" font-family="sans-serif" font-size="13" lengthAdjust="spacing" textLength="284.1592" x="12" y="826.5684">Track supported libraries, function coverage,</text><text fill="#000000" font-family="sans-serif" font-size="13" lengthAdjust="spacing" textLength="152.1724" x="12" y="841.8789">and inconsistency rates.</text></g><g id="elem_GMN45"><path d="M23.49,885 L23.49,925.6211 A0,0 0 0 0 23.49,925.6211 L293.6672,925.6211 A0,0 0 0 0 293.6672,925.6211 L293.6672,903 L418.74,878.06 L293.6672,895 L293.6672,895 L283.6672,885 L23.49,885 A0,0 0 0 0 23.49,885 " fill="#FEFFDD" style="stroke:#181818;stroke-width:0.5;"/><path d="M283.6672,885 L283.6672,895 L293.6672,895 L283.6672,885 " fill="#FEFFDD" style="stroke:#181818;stroke-width:0.5;"/><text fill="#000000" font-family="sans-serif" font-size="13" lengthAdjust="spacing" textLength="242.9565" x="29.49" y="902.5684">Study diversity in analyzed notebooks,</text><text fill="#000000" font-family="sans-serif" font-size="13" lengthAdjust="spacing" textLength="249.1772" x="29.49" y="917.8789">such as pipeline types or ML strategies.</text></g><!--link DS to UC1--><g id="link_DS_UC1"><path d="M202.81,438 C262.75,432.03 366.0595,421.7344 439.5895,414.4144 " fill="none" id="DS-to-UC1" style="stroke:#181818;stroke-width:1.0;"/><polygon fill="#181818" points="445.56,413.82,436.208,410.7312,440.5846,414.3153,437.0005,418.6919,445.56,413.82" style="stroke:#181818;stroke-width:1.0;"/></g><!--link DS to UC2--><g id="link_DS_UC2"><path d="M202.81,446.62 C263.97,452.71 370.5195,463.3255 444.0295,470.6455 " fill="none" id="DS-to-UC2" style="stroke:#181818;stroke-width:1.0;"/><polygon fill="#181818" points="450,471.24,441.4406,466.3679,445.0246,470.7446,440.6479,474.3285,450,471.24" style="stroke:#181818;stroke-width:1.0;"/></g><!--link DS to UC3--><g id="link_DS_UC3"><path d="M202.97,460.65 C240.62,476.11 296.84,498.07 347.16,513.31 C379.01,522.95 408.8887,530.2672 439.6387,536.9972 " fill="none" id="DS-to-UC3" style="stroke:#181818;stroke-width:1.0;"/><polygon fill="#181818" points="445.5,538.28,437.5633,532.4483,440.6156,537.211,435.8529,540.2633,445.5,538.28" style="stroke:#181818;stroke-width:1.0;"/></g><!--link DS to UC4--><g id="link_DS_UC4"><path d="M202.81,423.65 C269.12,395.02 390.3014,342.698 462.1814,311.668 " fill="none" id="DS-to-UC4" style="stroke:#181818;stroke-width:1.0;"/><polygon fill="#181818" points="467.69,309.29,457.8417,309.1846,463.0995,311.2717,461.0124,316.5295,467.69,309.29" style="stroke:#181818;stroke-width:1.0;"/></g><!--link DS to UC5--><g id="link_DS_UC5"><path d="M185.31,403.87 C217.69,358.55 277.58,284.21 347.16,243.31 C369.96,229.9 390.9649,222.0281 416.6149,215.5081 " fill="none" id="DS-to-UC5" style="stroke:#181818;stroke-width:1.0;"/><polygon fill="#181818" points="422.43,214.03,412.722,212.3705,417.5841,215.2618,414.6928,220.1239,422.43,214.03" style="stroke:#181818;stroke-width:1.0;"/></g><!--link DS to UC6--><g id="link_DS_UC6"><path d="M202.33,480.82 C239.13,512.89 294.48,558.59 347.16,592.31 C384.38,616.14 423.5622,635.8457 458.2722,651.8657 " fill="none" id="DS-to-UC6" style="stroke:#181818;stroke-width:1.0;"/><polygon fill="#181818" points="463.72,654.38,457.2246,646.9766,459.1802,652.2847,453.8721,654.2403,463.72,654.38" style="stroke:#181818;stroke-width:1.0;"/></g><!--link KM to UC6--><g id="link_KM_UC6"><path d="M231.84,724.11 C284.97,715.88 352.0307,705.4781 411.3807,696.2881 " fill="none" id="KM-to-UC6" style="stroke:#181818;stroke-width:1.0;"/><polygon fill="#181818" points="417.31,695.37,407.8039,692.7943,412.3689,696.1351,409.0281,700.7001,417.31,695.37" style="stroke:#181818;stroke-width:1.0;"/></g><!--link KM to UC7--><g id="link_KM_UC7"><path d="M231.84,743.11 C276.01,747.88 327.9446,753.4865 380.3246,759.1365 " fill="none" id="KM-to-UC7" style="stroke:#181818;stroke-width:1.0;"/><polygon fill="#181818" points="386.29,759.78,377.7709,754.8379,381.3188,759.2438,376.9129,762.7917,386.29,759.78" style="stroke:#181818;stroke-width:1.0;"/></g><!--link KM to UC8--><g id="link_KM_UC8"><path d="M232.01,755.67 C257.99,764.6 286.85,776.48 311.16,791.31 C329.69,802.62 328.03,814.05 347.16,824.31 C371.81,837.53 394.763,845.3811 421.743,851.8011 " fill="none" id="KM-to-UC8" style="stroke:#181818;stroke-width:1.0;"/><polygon fill="#181818" points="427.58,853.19,419.7504,847.2152,422.7158,852.0325,417.8985,854.9979,427.58,853.19" style="stroke:#181818;stroke-width:1.0;"/></g><!--link UC4 to GMN33--><g id="link_UC4_GMN33"><path d="M407.57,281.8 C373.92,273.76 342.54,257.47 329.16,225.81 C316.91,196.81 320.13,173.44 347.16,157.31 C371.88,142.56 400.96,131.36 428.23,123.05 " fill="none" id="UC4-GMN33" style="stroke:#181818;stroke-width:1.0;stroke-dasharray:7.0,7.0;"/></g><!--link UC5 to GMN36--><g id="link_UC5_GMN36"><path d="M440.31,179.97 C409.75,170.67 375.58,157.67 347.16,140.31 C323.95,126.13 318.57,106.87 329.16,81.81 C343.19,48.61 377.38,33.18 413.14,26.58 " fill="none" id="UC5-GMN36" style="stroke:#181818;stroke-width:1.0;stroke-dasharray:7.0,7.0;"/></g><!--SRC=[XLJRRjim37ttLn0TC6n06c2zFmqecWuRMWz3i-rTbcb7Y2ov4ftK7VRl8nt7TY_e7W8GCNbuU7WeYmK1UGYcN17a9g0curqIryRLAgWAQgNNgiGbjHP1FYjNMamIfSa7M2XIIstGaOa4Ai9YsN-vSNvhCIynLSOH_p38zviqINf8EFWHV66iSIMyXqkdR1jDF80_2K0JKQiuf20eS9umytvz832_hZvDiwuVQkk3PDMx_3xfQ9fq6IF6EE30VQEieRPFFKx-JfXT-Oh7Dz4xfhP3LoBCCtQxD8IgiMHgfha7ZptgoJJxYx74AWmvaBN2jyP01lSLfqzu32f2gXp_Kx7IppZSOVHsW_ta8gPnsZkMaj3f4VXiMlJRH9d-4M4zT53wlZ7Ho9XG8GMZzwNdy8w1SPwhkCByYQQojSTnRjYmQYep4s4ldXRpT8ib71v-xdOuX4TZU3o69sDuEePdINAJ3l4Gde_XHP88ezxMlkZzSlr0WTsvDqc48lXgvAvzZjrm8kAmqb7Ned7TTKJuWFDoFkFR217336vlqu_p15tUORtiBJRyhZQcL8HZSoK7LnGOUAUWijXn4_4jRj366HV5Hgz4nQkxRyiVXuiKwXNB7e7lIpUHc7mPV5CpkVXM_sE6wjtFCyee6KQHGHfgx5gbjr2R6cLLa6CqfGF5WBXHjkci3qAGi6H7lUYLUH8oNJEn_FukHglp6vCZyVF13AgANnXWzOZFmSKPR7rO5zPlEUJ9bFCLU_C_RKuPuRM3KhRqmT2gwlIZq6Xg0dR0aqsYadzVTh3o7dRuSYvVMG5s05zJOOqcnaVQ8he9ac-eRgXVLbcAhDo9HJEvB3jWjr_D8A8TCtkpwJd3_EIjh1cihdqWpC6QB2Yfcmq6P4OR3FmSI5lPqlJYMv0rlTNbWgkMrEGj-uzn-EHRHc2WxfRpKS-f1GTpK5ll7CYEUTKI_m00]--></g></svg>